<svg width="144" height="128" viewBox="0 0 144 128" fill="none" xmlns="http://www.w3.org/2000/svg">
<path d="M70.938 49.6937C60.8441 44.386 58.0559 37.2035 60.2006 29.0086C63.5762 16.1103 74.5611 7.73049 92.0414 3.66517C111.717 -0.910769 131.442 6.00736 138.804 19.7201C144.275 29.9104 144.625 40.4278 143.45 51.067C142.368 60.8609 139.252 70.3464 134.043 79.4564C122.641 99.3942 104.247 114.809 76.0231 123.624C64.3019 127.285 51.9741 128.954 39.1123 127.446C20.4589 125.26 6.93823 115.999 2.2853 102.57C-1.02307 93.0221 -0.384686 83.5215 1.95014 73.9489C4.20676 64.6969 7.753 55.7138 12.9209 47.0889C20.1409 35.039 29.792 24.0537 43.0169 14.8104C53.0617 7.78976 64.5059 2.36152 78.6192 0.277394C79.3893 0.163678 80.1653 0.0572453 80.9463 0.00134386C81.1917 -0.0162224 81.4623 0.14283 81.7213 0.221014C81.9875 1.10183 80.9785 1.29582 80.2947 1.62388C67.5839 7.72243 56.0286 14.7518 46.1864 23.1179C33.0936 34.2469 24.0217 46.7658 20.2916 61.1148C17.8247 70.6047 17.4138 80.0983 20.3712 89.5484C22.1271 95.1594 25.4724 100.22 32.1079 103.922C39.8738 108.254 48.5886 109.028 57.8074 107.271C72.8303 104.408 83.6482 97.4225 92.5544 88.7765C104.862 76.828 110.167 63.0597 112.889 48.659C113.78 43.9421 114.068 39.2052 112.769 34.5063C112.005 31.7424 110.525 29.1426 107.678 27.0782C98.8542 20.681 84.066 23.4052 79.7054 32.3577C76.2158 39.5221 77.9258 45.9679 86.1295 51.2225C86.64 51.5495 87.1242 51.9009 87.5743 52.2693C87.7532 52.4159 87.8058 52.6398 88.1775 53.2767C81.7566 53.2853 76.2775 51.9654 70.938 49.6937Z" fill="#0FCCF4"/>
</svg>
